<?xml version="1.0" encoding="UTF-8" standalone="no"?>
<!DOCTYPE svg PUBLIC "-//W3C//DTD SVG 1.1//EN" "http://www.w3.org/Graphics/SVG/1.1/DTD/svg11.dtd">
<svg width="100%" height="100%" viewBox="0 0 1000 1000" version="1.1" xmlns="http://www.w3.org/2000/svg" xmlns:xlink="http://www.w3.org/1999/xlink" xml:space="preserve" xmlns:serif="http://www.serif.com/" style="fill-rule:evenodd;clip-rule:evenodd;stroke-linejoin:round;stroke-miterlimit:2;">
    <g transform="matrix(2.72366,0,0,2.72366,-855.975,-698.742)">
        <g transform="matrix(0.909829,0,0,0.611267,2.7383,234.864)">
            <path d="M580.672,92.781L655.686,62.457L674.426,62.03L676.203,423.818C678.861,441.79 692.668,443.799 713.564,435.661L718.049,445.475L641.539,477.387L624.451,477.387L622.923,121.159C623.356,101.093 611.428,93.024 584.674,101.024L580.672,92.781Z" style="fill:rgb(179,191,171);"/>
        </g>
        <g transform="matrix(0.909829,0,0,0.873495,229.317,124.257)">
            <path d="M187.507,245.894C198.933,237.425 207.904,223.909 211.14,208.494C213.992,218.416 226.394,232.848 246.735,243.839C235.498,254.515 227.787,265.811 222.911,277.604C212.37,265.075 200.66,254.364 187.507,245.894Z" style="fill:rgb(57,69,49);"/>
        </g>
        <g transform="matrix(0.757847,0,0,0.731923,135.95,171.115)">
            <path d="M603.809,423.97C597.625,493.896 549.034,571.761 452.59,593.286C372.66,602.167 313.972,591.215 287.026,550.628C259.207,513.731 263.289,455.244 298.909,375.413C286.587,456.348 294.21,520.026 360.097,533.289C473.13,556.632 527.67,502.015 603.809,423.97Z" style="fill:rgb(57,69,49);"/>
        </g>
        <g id="Layer1" transform="matrix(0.773492,0,0,0.742602,107.789,184.265)">
            <path d="M606.167,297.855C647.799,348.991 643.537,421.495 596.656,459.662C549.775,497.83 477.913,487.301 436.282,436.165C394.65,385.028 398.912,312.525 445.793,274.358C492.674,236.19 564.536,246.719 606.167,297.855ZM500.127,321.869C480.111,331.224 473.313,359.046 484.957,383.96C496.6,408.874 522.305,421.506 542.322,412.151C562.338,402.796 569.136,374.974 557.493,350.06C545.849,325.146 520.144,312.514 500.127,321.869Z" style="fill:rgb(91,103,83);"/>
        </g>
        <g transform="matrix(0.909829,0,0,0.873495,283.205,108.09)">
            <path d="M187.507,245.894C198.933,237.425 207.904,223.909 211.14,208.494C213.992,218.416 226.394,232.848 246.735,243.839C235.498,254.515 227.787,265.811 222.911,277.604C212.37,265.075 200.66,254.364 187.507,245.894Z" style="fill:rgb(57,69,49);"/>
        </g>
    </g>
</svg>
